<svg
   height="48"
   width="80"
      xmlns:xlink="http://www.w3.org/1999/xlink"
   xmlns="http://www.w3.org/2000/svg"
   xmlns:svg="http://www.w3.org/2000/svg"
   >
  <path
     d="M 0,0 H 79.998919 V 47.999351 H 0 Z"
     id="path2"
     style="stroke-width:0.0799989" />
  <path
     d="M 0,15.999784 H 79.998919 V 47.999351 H 0 Z"
     fill="#dd0000"
     id="path4"
     style="stroke-width:0.0799989" />
  <path
     d="M 0,31.999568 H 79.998919 V 47.999351 H 0 Z"
     fill="#ffce00"
     id="path6"
     style="stroke-width:0.0799989" />
  <g
     transform="matrix(0.01636706,0,0,0.01636362,26.679647,20.379037)"
     id="g336">
    <path
       d="m 1351.01,228.29 a 520,570.51 0 1 1 -1040,0 520,570.51 0 1 1 1040,0 z"
       fill="#dd0000"
       transform="matrix(1.09099,0,0,1.00519,-93.10889,-17.03263)"
       id="path8" />
    <g
       transform="translate(-896.5747,-1479.218)"
       id="g29">
      <use
         height="1052.36"
         transform="matrix(-1,0,0,1,3344.188,-55.39965)"
         width="744.09003"
         xlink:href="#a"
         id="use10" />
      <use
         height="1052.36"
         transform="matrix(-1,0,0,1,3362.762,-41.47837)"
         width="744.09003"
         xlink:href="#a"
         id="use12" />
      <use
         height="1052.36"
         transform="matrix(-1,0,0,1,3381.317,-27.62595)"
         width="744.09003"
         xlink:href="#a"
         id="use14" />
      <use
         height="1052.36"
         transform="matrix(-1,0,0,1,3399.832,-13.72483)"
         width="744.09003"
         xlink:href="#a"
         id="use16" />
      <use
         height="1052.36"
         transform="matrix(-1,0,0,1,3418.376,0.166189)"
         width="744.09003"
         xlink:href="#a"
         id="use18" />
      <use
         height="1052.36"
         transform="translate(74.6188,-55.50708)"
         width="744.09003"
         xlink:href="#a"
         id="use20" />
      <use
         height="1052.36"
         transform="translate(55.83946,-41.54721)"
         width="744.09003"
         xlink:href="#a"
         id="use22" />
      <use
         height="1052.36"
         transform="translate(37.06012,-27.58735)"
         width="744.09003"
         xlink:href="#a"
         id="use24" />
      <use
         height="1052.36"
         transform="translate(18.4746,-13.76497)"
         width="744.09003"
         xlink:href="#a"
         id="use26" />
      <path
         id="a"
         d="m 1605.68,2445.31 175.51,82.98 18.55,-13.92 -164.76,-77.69 z"
         fill="#ffc709"
         stroke="#000000"
         stroke-width="6.25" />
    </g>
    <g
       transform="translate(-896.5747,-1479.218)"
       id="g45">
      <path
         d="m 1718.03,1214.38 -249.53,13.4 v 66.6 13.81 66.59 l 249.53,13.41 h 27.03 l 208.06,-30.56 v -49.44 -13.81 -49.44 l -208.06,-30.56 z"
         stroke="#000000"
         stroke-linejoin="round"
         stroke-width="12.5"
         id="path31" />
      <rect
         fill="#ffc709"
         height="734.84998"
         rx="21.870001"
         stroke="#000000"
         stroke-linejoin="round"
         stroke-width="13.75"
         width="129.75999"
         x="1644.46"
         y="1464.95"
         id="rect33" />
      <path
         d="m 2002.87,1700.09 c -73.75,76.15 -176.98,123.57 -291.28,123.57 -81.71,0 -157.75,-24.29 -221.44,-65.91 l -51.9,76.72 c 78.5,51.66 172.4,81.81 273.34,81.81 140.09,0 266.67,-58.01 357.22,-151.19 z"
         fill="#ffc709"
         stroke="#000000"
         stroke-width="13.75"
         id="path35" />
      <path
         d="m 1662.75,1371.5 -357.41,660.16 404.6,-522.13 404.62,522.13 -357.37,-660.16 -47.22,66.31 z"
         fill="#ffc709"
         stroke="#000000"
         stroke-width="13.75"
         id="path37" />
      <path
         d="m 1717.6,1221.35 -171.41,8.22 -71.18,28.57 v 86.28 l 70.25,28.57 172.34,9.15 h 26.27 l 202.27,-29.67 v -44.33 -12.78 -45.73 l -202.27,-28.28 z"
         fill="#ffc709"
         id="path39" />
      <rect
         fill="#ffc709"
         height="121.74"
         rx="59.400002"
         stroke="#000000"
         stroke-linejoin="round"
         stroke-width="17.72"
         width="118.79"
         x="1649.9"
         y="1351.86"
         id="rect41" />
      <path
         d="m 1734.85,1412.92 a 26.52,26.52 0 1 1 -53.04,0 26.52,26.52 0 1 1 53.04,0 z"
         fill="#ffc709"
         stroke="#000000"
         stroke-linejoin="round"
         stroke-width="6.25"
         transform="matrix(0.948831,0,0,0.948729,88.46034,71.26418)"
         id="path43" />
    </g>
    <g
       id="b"
       transform="translate(-896.5747,-1479.218)">
      <path
         d="M 1247.35,2299.71 1022.76,2048.55 934.61,1733.4 966,1442.39 l 143.7,-278.94 222.18,-171.46 132.82,-49.51 37.44,54.34 65.2,19.32 -37.43,31.39 -4.83,80.91 -227.01,148.52 -137.66,229.42 -13.28,258.41 68.83,224.6 263.23,251.16 z"
         fill="#ffc709"
         id="path47" />
      <g
         id="g75">
        <use
           height="1052.36"
           transform="rotate(-1.8900148,3472.0585,2550.2534)"
           width="744.09003"
           xlink:href="#c"
           id="use49" />
        <use
           height="1052.36"
           transform="rotate(-2.0664214,2237.8453,4254.9554)"
           width="744.09003"
           xlink:href="#d"
           id="use51" />
        <use
           height="1052.36"
           transform="translate(-120.2254,6.373583)"
           width="744.09003"
           xlink:href="#d"
           id="use53" />
        <use
           height="1052.36"
           transform="matrix(0.9998,-0.01997304,0.01997296,0.9998,-84.54348,89.98236)"
           width="744.09003"
           xlink:href="#c"
           id="use55" />
        <use
           height="1052.36"
           transform="matrix(0.885908,1.7663e-4,-1.9689e-4,0.987657,147.2906,-0.54859)"
           width="744.09003"
           xlink:href="#c"
           id="use57" />
        <use
           height="1052.36"
           transform="translate(56.08591,-19.55353)"
           width="744.09003"
           xlink:href="#c"
           id="use59" />
        <use
           height="1052.36"
           transform="translate(-25.2257,-14.84422)"
           width="744.09003"
           xlink:href="#d"
           id="use61" />
        <use
           height="1052.36"
           transform="rotate(-3.49036,1623.2992,861.9235)"
           width="744.09003"
           xlink:href="#d"
           id="use63" />
        <use
           height="1052.36"
           transform="matrix(0.999541,-0.03026764,0.03026752,0.999541,80.70093,100.7888)"
           width="744.09003"
           xlink:href="#c"
           id="use65" />
        <use
           height="1052.36"
           transform="translate(23.90821,16.69647)"
           width="744.09003"
           xlink:href="#c"
           id="use67" />
        <path
           id="c"
           d="m 991.04,1855.71 c 0,0 8.82,28.99 30.21,63.99 23.74,36.42 41.25,34.85 41.25,34.85 0,0 26.61,4.85 30.37,-15.94 1.4,-20.79 -12.67,-28.28 -12.67,-28.75 0,0.47 -15.36,-11.27 -35.2,-20.16 -17.02,-11.23 -15.93,-11 -25.78,-24.61 -6.1,-15.48 -4.22,-4.7 -19.22,-65.23 -15,-60.53 -21.25,-94.22 -21.72,-94.22 l -21.49,4.21 19.46,88.14 6.81,30.03 z"
           fill="#ffc709"
           stroke="#000000"
           stroke-linejoin="round"
           stroke-width="6.25" />
        <path
           id="d"
           d="m 1049.23,1688.66 40.82,156.98 c 0,0 4.89,17.06 7.61,34.47 -0.57,20.69 -4.54,28.81 -4.54,28.81 -0.47,0 -2.6,10.95 -4.01,22.2 -0.94,15.47 5.58,26.24 5.58,25.77 0,0.47 4.99,8.28 20.16,9.69 17.5,-0.47 20.15,-12.97 20.15,-12.97 0,0 2.7,-1.25 1.98,-18.75 -0.73,-17.5 -9.48,-45 -9.48,-45 l -58.75,-212 z"
           fill="#ffc709"
           stroke="#000000"
           stroke-linejoin="round"
           stroke-width="6.25" />
        <use
           height="1052.36"
           transform="rotate(-4.2539388,2118.7413,-308.62373)"
           width="744.09003"
           xlink:href="#c"
           id="use71" />
        <path
           d="m 1130.62,1752.82 56.1,149.93 c 0,0 6.54,16.22 10.96,33.1 1.48,20.6 -1.66,29.22 -1.66,29.22 -0.47,0.06 -1.51,11.21 -1.8,22.57 0.6,15.48 8.14,25.24 8.09,24.78 0.05,0.46 5.79,7.5 21,6.76 17.36,-2.93 18.76,-15.7 18.76,-15.7 0,0 2.57,-16.63 -2.23,-32.95 -3.86,-20.53 -40.61,-87.86 -55.16,-133.38 l -32.42,-99.19 z"
           fill="#ffc709"
           stroke="#000000"
           stroke-linejoin="round"
           stroke-width="6.25"
           id="path73" />
      </g>
      <g
         id="g102">
        <use
           height="1052.36"
           transform="translate(35.03599,6.845677)"
           width="744.09003"
           xlink:href="#e"
           id="use77" />
        <use
           height="1052.36"
           transform="translate(19.3666,-0.654323)"
           width="744.09003"
           xlink:href="#e"
           id="use79" />
        <use
           height="1052.36"
           transform="rotate(7.4582639,1442.6963,2300.1956)"
           width="744.09003"
           xlink:href="#e"
           id="use81" />
        <use
           height="1052.36"
           transform="rotate(-8.4021402,933.96107,2090.926)"
           width="744.09003"
           xlink:href="#f"
           id="use83" />
        <path
           id="e"
           d="m 1072.69,1170.14 c 0,0 -21.08,23.85 -50.19,72.22 -28.17,47.44 -29.37,49.38 -42.5,85 -9.38,34.69 -9.47,46.41 -2.97,65.78 8.38,15.62 16.58,18.91 24.22,19.22 7.64,0.31 11.57,-1.78 17.18,-10.41 11.25,-25.53 -2.93,-38.34 -7.18,-59.59 -4.25,-21.25 -2.49,-4.91 -2.5,-20.65 2.34,-20.9 8.9,-26.37 11.72,-32.01 4.22,-7.97 7.2,-13.98 30.78,-49.17 24.52,-37.54 36.25,-58.17 36.25,-58.17 0,0 2.59,-8.39 -3.08,-12.5 -5.43,-3.94 -11.73,0.28 -11.73,0.28 z"
           fill="#ffc709"
           stroke="#000000"
           stroke-width="6.25" />
        <use
           height="1052.36"
           transform="translate(-22.62156,-33.45269)"
           width="744.09003"
           xlink:href="#f"
           id="use86" />
        <use
           height="1052.36"
           transform="rotate(6.7179003,1377.7395,2562.1822)"
           width="744.09003"
           xlink:href="#e"
           id="use88" />
        <use
           height="1052.36"
           transform="translate(-5.051164,-25.44072)"
           width="744.09003"
           xlink:href="#f"
           id="use90" />
        <use
           height="1052.36"
           transform="rotate(6.9486073,1534.8944,2190.8364)"
           width="744.09003"
           xlink:href="#e"
           id="use92" />
        <path
           id="f"
           d="m 1286.66,1173.43 c 0,0 -46.05,55.18 -62.91,76.43 -20.14,23.13 -40.43,57.03 -57.5,74.06 -19.89,15.63 -37.5,16.1 -51.25,25.94 -15.63,10.32 -19.06,15.94 -21.25,26.25 -1.72,14.07 10.53,26.25 25,23.75 14,0.32 32.5,-19.5 32.5,-19.5 0,0 25.15,-34.35 42.5,-58 38.47,-56.49 110.75,-137.5 110.75,-137.5 z"
           fill="#ffc709"
           stroke="#000000"
           stroke-width="6.25" />
        <use
           height="1052.36"
           transform="matrix(1.105681,-0.04354951,0.05267582,1.047619,-211.8254,44.91779)"
           width="744.09003"
           xlink:href="#f"
           id="use95" />
        <use
           height="1052.36"
           transform="rotate(2.9627332,1455.4117,554.904)"
           width="744.09003"
           xlink:href="#g"
           id="use97" />
        <use
           height="1052.36"
           transform="matrix(1.124942,-0.124979,0.142751,0.991863,-325.2479,250.8697)"
           width="744.09003"
           xlink:href="#f"
           id="use99" />
        <path
           id="g"
           d="m 1324.2,1275.25 c 0,0 -6.23,8.37 -58.65,83.36 -47.27,81.57 -54.3,96.83 -54.3,96.83 0,0 -7.49,15.67 -15.62,20.67 -8.13,5 -22.42,5.24 -26.88,2.19 -4.25,-2.91 -6.56,-3.28 -8.75,-18.44 1.1,-9.06 3.53,-12.78 7.09,-16.34 7.3,-6.15 11.13,-7.31 20.31,-10.76 8.97,-5.26 12.28,-10.05 18.11,-18.91 11.41,-20.21 16.46,-30.07 35.84,-59.66 25.09,-39.08 45.16,-63.14 68.33,-93.95 z"
           fill="#ffc709"
           stroke="#000000"
           stroke-width="6.25" />
      </g>
      <g
         id="g190">
        <path
           d="m 1627.16,871.97 c -72.04,7.59 -141.32,24.5 -206.53,49.66 l 5.56,11.15 c 65.15,-24.99 133.59,-41.32 202.97,-48.69 6.04,-0.68 4.7,-12.78 -2,-12.12 z"
           fill="#ffc709"
           stroke="#000000"
           stroke-linecap="round"
           stroke-linejoin="round"
           stroke-width="5.14"
           id="path104" />
        <path
           d="m 1668.81,891.22 c -66.16,3.43 -119.49,13.52 -174.59,29.62 -21.42,6.15 -42.54,13.26 -63.34,21.25 l 5.65,11.32 c 74.64,-28.39 153.64,-45.22 233.38,-49.75 7.35,-0.8 6.31,-12.32 -1.1,-12.44 z"
           fill="#ffc709"
           stroke="#000000"
           stroke-linecap="round"
           stroke-linejoin="round"
           stroke-width="5"
           id="path106" />
        <path
           d="m 1638.19,916.41 c -67.28,6.84 -133.74,22.31 -197,46.25 l 4.75,9.5 c 62.31,-23.45 127.75,-38.58 193.97,-45.38 6.13,-0.44 4.89,-10.94 -1.72,-10.37 z"
           fill="#ffc709"
           stroke="#000000"
           stroke-linecap="round"
           stroke-linejoin="round"
           stroke-width="5"
           id="path108" />
        <path
           d="m 1449.69,979.66 5.62,11.22 c 88.96,-32.39 168.25,-44.8 236.41,-46.82 7.07,-0.43 7.09,-11.94 -0.94,-12.37 -77.42,2.68 -166.49,19.97 -241.09,47.97 z"
           fill="#ffc709"
           stroke="#000000"
           stroke-linecap="round"
           stroke-linejoin="round"
           stroke-width="5"
           id="path110" />
        <path
           d="m 1654.69,956.06 c -59.27,4.9 -125.95,18.84 -194.69,44.19 l 5.75,11.47 c 59.11,-21.89 138.31,-39.45 191.09,-43.34 7.34,-1.09 5.61,-12.91 -2.15,-12.32 z"
           fill="#ffc709"
           stroke="#000000"
           stroke-linecap="round"
           stroke-linejoin="round"
           stroke-width="5"
           id="path112" />
        <path
           d="m 1471.38,1022.91 5.59,11.18 c 60.17,-22.09 158.98,-42.99 216.34,-42.03 6.2,-0.48 5.69,-12.04 -0.53,-12.53 -71.94,-0.04 -147.15,16.44 -221.4,43.38 z"
           fill="#ffc709"
           stroke="#000000"
           stroke-linecap="round"
           stroke-linejoin="round"
           stroke-width="5"
           id="path114" />
        <path
           d="m 1648.13,1006.22 c -56.4,6.45 -112.14,19.57 -165.54,39.09 l 5.6,11.16 c 50.27,-18.16 105.78,-32.17 161.37,-37.72 8.24,-1.16 7.09,-13.05 -1.43,-12.53 z"
           fill="#ffc709"
           stroke="#000000"
           stroke-linecap="round"
           stroke-linejoin="round"
           stroke-width="5"
           id="path116" />
        <path
           d="m 1493.75,1067.59 5.63,11.19 c 49.24,-17.66 127.05,-34.13 180,-36.87 7.69,-0.88 6.67,-12.49 -1.07,-12.69 -61.98,2.35 -129.52,19.07 -184.56,38.37 z"
           fill="#ffc709"
           stroke="#000000"
           stroke-linecap="round"
           stroke-linejoin="round"
           stroke-width="5"
           id="path118" />
        <path
           d="m 1683.91,1056.22 c -45.91,0.35 -126.34,17.26 -177.97,35.66 l 5.62,11.21 c 49.35,-17.46 130.66,-33.53 172.94,-34.53 8.52,-0.09 8.33,-12.25 -0.59,-12.34 z"
           fill="#ffc709"
           stroke="#000000"
           stroke-linecap="round"
           stroke-linejoin="round"
           stroke-width="5"
           id="path120" />
        <path
           d="m 1644.75,1085.25 c -43.05,6.13 -85.59,16.45 -126.66,30.91 l 5.6,11.15 c 39.21,-14.21 82.91,-24.7 123.65,-30.03 7.86,-1.66 5.99,-13.72 -2.59,-12.03 z"
           fill="#ffc709"
           stroke="#000000"
           stroke-linecap="round"
           stroke-linejoin="round"
           stroke-width="5"
           id="path122" />
        <path
           d="m 1682.31,1105.81 c -47.42,1.7 -109.34,15.64 -153.78,31.19 l 5.63,11.22 c 41.43,-14.3 100.57,-28.18 148.34,-29.91 8.66,-0.47 7.93,-13.03 -0.19,-12.5 z"
           fill="#ffc709"
           stroke="#000000"
           stroke-linecap="round"
           stroke-linejoin="round"
           stroke-width="5"
           id="path124" />
        <use
           height="1052.36"
           transform="matrix(-0.342847,0.886674,-0.904743,-0.333954,3477.79,854.2747)"
           width="744.09003"
           xlink:href="#h"
           id="use126" />
        <use
           height="1052.36"
           transform="matrix(-0.615062,-0.668952,-0.683653,0.601574,3316.868,691.1588)"
           width="744.09003"
           xlink:href="#h"
           id="use128" />
        <use
           height="1052.36"
           transform="matrix(0.08304219,0.913807,-0.907373,0.08363065,3016.55,99.30195)"
           width="744.09003"
           xlink:href="#h"
           id="use130" />
        <use
           height="1052.36"
           transform="matrix(-0.533441,-0.689356,-0.688213,0.541052,3192.195,841.3906)"
           width="744.09003"
           xlink:href="#h"
           id="use132" />
        <use
           height="1052.36"
           transform="matrix(0.189801,0.877093,-0.877887,0.18963,2808.218,-31.80175)"
           width="744.09003"
           xlink:href="#h"
           id="use134" />
        <use
           height="1052.36"
           transform="matrix(-0.491088,-0.685334,-0.654357,0.547119,3044.978,852.3477)"
           width="744.09003"
           xlink:href="#h"
           id="use136" />
        <use
           height="1052.36"
           transform="matrix(0.365788,0.780433,-0.81444,0.350514,2481.48,-198.4304)"
           width="744.09003"
           xlink:href="#h"
           id="use138" />
        <use
           height="1052.36"
           transform="matrix(-0.637479,-0.598106,-0.600157,0.652774,3042.67,610.8642)"
           width="744.09003"
           xlink:href="#h"
           id="use140" />
        <use
           height="1052.36"
           transform="matrix(-0.670169,-0.481205,-0.484993,0.675247,2829.417,493.6649)"
           width="744.09003"
           xlink:href="#h"
           id="use142" />
        <use
           height="1052.36"
           transform="matrix(0.371327,0.757728,-0.796697,0.353163,2397.734,-146.0319)"
           width="744.09003"
           xlink:href="#h"
           id="use144" />
        <use
           height="1052.36"
           transform="matrix(0.462503,0.718011,-0.743383,0.446716,2175.161,-239.825)"
           width="744.09003"
           xlink:href="#h"
           id="use146" />
        <use
           height="1052.36"
           transform="matrix(-0.675899,-0.537329,-0.484671,0.733345,2793.343,479.0532)"
           width="744.09003"
           xlink:href="#h"
           id="use148" />
        <use
           height="1052.36"
           transform="matrix(-0.346087,1.021902,-0.994942,-0.353338,3562.619,617.2993)"
           width="744.09003"
           xlink:href="#h"
           id="use150" />
        <use
           height="1052.36"
           transform="matrix(0.275637,0.986972,-1.002316,0.27076,2925.568,-443.5212)"
           width="744.09003"
           xlink:href="#h"
           id="use152" />
        <use
           height="1052.36"
           transform="matrix(0.329018,1.059671,-1.033348,0.338851,2874.447,-601.9771)"
           width="744.09003"
           xlink:href="#h"
           id="use154" />
        <use
           height="1052.36"
           transform="matrix(0.39445,1.004511,-0.974629,0.406765,2654.295,-641.5226)"
           width="744.09003"
           xlink:href="#h"
           id="use156" />
        <use
           height="1052.36"
           transform="matrix(0.528696,0.875115,-0.892902,0.510815,2329.721,-667.5531)"
           width="744.09003"
           xlink:href="#h"
           id="use158" />
        <use
           height="1052.36"
           transform="matrix(0.552781,0.868704,-0.871656,0.549752,2224.343,-695.5079)"
           width="744.09003"
           xlink:href="#h"
           id="use160" />
        <use
           height="1052.36"
           transform="matrix(0.545686,0.870302,-0.876076,0.539066,2193.914,-646.0939)"
           width="744.09003"
           xlink:href="#h"
           id="use162" />
        <use
           height="1052.36"
           transform="matrix(0.643061,0.795139,-0.79481,0.643513,1918.417,-719.2436)"
           width="744.09003"
           xlink:href="#h"
           id="use164" />
        <use
           height="1052.36"
           transform="matrix(-0.902135,-0.482109,-0.475963,0.913779,3261.291,-164.2933)"
           width="744.09003"
           xlink:href="#h"
           id="use166" />
        <use
           height="1052.36"
           transform="matrix(-0.151193,1.075858,-0.988502,-0.164554,3427.625,265.658)"
           width="744.09003"
           xlink:href="#h"
           id="use168" />
        <use
           height="1052.36"
           transform="matrix(-0.625152,-0.862987,-0.861421,0.626287,3629.281,738.9606)"
           width="744.09003"
           xlink:href="#h"
           id="use170" />
        <use
           height="1052.36"
           transform="matrix(0.113216,1.053721,-1.06774,0.11173,3255.83,-187.4381)"
           width="744.09003"
           xlink:href="#h"
           id="use172" />
        <use
           height="1052.36"
           transform="matrix(-0.64277,-0.895285,-0.859861,0.669248,3573.671,714.9177)"
           width="744.09003"
           xlink:href="#h"
           id="use174" />
        <use
           height="1052.36"
           transform="matrix(-0.631151,-0.811448,-0.802611,0.638099,3401.265,725.6758)"
           width="744.09003"
           xlink:href="#h"
           id="use176" />
        <use
           height="1052.36"
           transform="matrix(0.24308,1.150042,-1.130545,0.24727,3178.236,-491.238)"
           width="744.09003"
           xlink:href="#h"
           id="use178" />
        <use
           height="1052.36"
           transform="matrix(0.419876,0.997844,-1.022915,0.409583,2755.035,-595.9101)"
           width="744.09003"
           xlink:href="#h"
           id="use180" />
        <use
           height="1052.36"
           transform="matrix(-0.700727,-0.749749,-0.713428,0.736399,3252.822,527.5531)"
           width="744.09003"
           xlink:href="#h"
           id="use182" />
        <use
           height="1052.36"
           transform="matrix(0.517898,0.962634,-0.976809,0.51038,2521.404,-702.4952)"
           width="744.09003"
           xlink:href="#h"
           id="use184" />
        <use
           height="1052.36"
           transform="matrix(0.555081,0.880115,-0.892784,0.547202,2286.381,-655.2489)"
           width="744.09003"
           xlink:href="#h"
           id="use186" />
        <use
           height="1052.36"
           transform="matrix(-0.843489,-0.630462,-0.636168,0.83592,3196.744,280.2743)"
           width="744.09003"
           xlink:href="#h"
           id="use188" />
      </g>
      <g
         id="g222">
        <use
           height="1052.36"
           transform="matrix(1.026081,-0.527627,0.573085,0.906582,-861.6593,1048.425)"
           width="744.09003"
           xlink:href="#h"
           id="use192" />
        <use
           height="1052.36"
           transform="matrix(0.996965,-0.642688,0.649062,0.987173,-930.8159,1060.041)"
           width="744.09003"
           xlink:href="#h"
           id="use194" />
        <use
           height="1052.36"
           transform="matrix(0.814561,-0.580079,0.580077,0.814561,-592.2413,1352.839)"
           width="744.09003"
           xlink:href="#h"
           id="use196" />
        <use
           height="1052.36"
           transform="matrix(-0.637932,0.770093,0.770091,0.637932,447.7431,256.1363)"
           width="744.09003"
           xlink:href="#h"
           id="use198" />
        <use
           height="1052.36"
           transform="matrix(0.970044,-0.372861,0.368591,0.981276,-359.4397,775.603)"
           width="744.09003"
           xlink:href="#h"
           id="use200" />
        <use
           height="1052.36"
           transform="matrix(0.872203,-0.489146,0.489144,0.872203,-387.2204,1051.731)"
           width="744.09003"
           xlink:href="#h"
           id="use202" />
        <use
           height="1052.36"
           transform="matrix(-0.581951,0.85154,0.843282,0.587647,306.333,315.2726)"
           width="744.09003"
           xlink:href="#h"
           id="use204" />
        <use
           height="1052.36"
           transform="matrix(0.883684,-0.559739,0.565062,0.875355,-583.406,1190.914)"
           width="744.09003"
           xlink:href="#h"
           id="use206" />
        <use
           height="1052.36"
           transform="matrix(-0.464239,0.834706,0.805115,0.520544,355.4233,408.478)"
           width="744.09003"
           xlink:href="#h"
           id="use208" />
        <use
           height="1052.36"
           transform="matrix(0.800577,-0.522018,0.522596,0.80015,-338.1829,1241.306)"
           width="744.09003"
           xlink:href="#h"
           id="use210" />
        <use
           height="1052.36"
           transform="matrix(-0.50844,0.750546,0.761006,0.494134,518.2056,565.6206)"
           width="744.09003"
           xlink:href="#h"
           id="use212" />
        <use
           height="1052.36"
           transform="matrix(0.755672,-0.654952,0.65495,0.755672,-495.3443,1475.821)"
           width="744.09003"
           xlink:href="#h"
           id="use214" />
        <use
           height="1052.36"
           transform="matrix(-0.485631,0.916794,0.918665,0.48464,131.5668,481.1247)"
           width="744.09003"
           xlink:href="#h"
           id="use216" />
        <use
           height="1052.36"
           transform="matrix(-0.47861,0.878029,0.878025,0.47861,246.4011,569.1745)"
           width="744.09003"
           xlink:href="#h"
           id="use218" />
        <use
           height="1052.36"
           transform="matrix(-0.600145,0.799893,0.799891,0.600145,577.9245,381.3682)"
           width="744.09003"
           xlink:href="#h"
           id="use220" />
      </g>
      <g
         id="g283">
        <use
           height="1052.36"
           transform="matrix(0.935721,0.488544,-0.496699,0.916247,983.9212,-666.3682)"
           width="744.09003"
           xlink:href="#h"
           id="use224" />
        <use
           height="1052.36"
           transform="matrix(0.980452,0.422405,-0.427922,0.95725,802.4647,-617.1123)"
           width="744.09003"
           xlink:href="#h"
           id="use226" />
        <use
           height="1052.36"
           transform="matrix(1.065277,0.358136,-0.386028,0.965959,635.7466,-512.6684)"
           width="744.09003"
           xlink:href="#h"
           id="use228" />
        <use
           height="1052.36"
           transform="matrix(1.034188,0.279432,-0.273374,1.068487,457.0037,-558.3204)"
           width="744.09003"
           xlink:href="#h"
           id="use230" />
        <use
           height="1052.36"
           transform="matrix(1.049426,0.230155,-0.235513,1.025168,370.9369,-374.8913)"
           width="744.09003"
           xlink:href="#h"
           id="use232" />
        <use
           height="1052.36"
           transform="matrix(0.803898,0.781848,-0.836225,0.751203,1803.706,-700.1667)"
           width="744.09003"
           xlink:href="#h"
           id="use234" />
        <use
           height="1052.36"
           transform="matrix(-1.041525,-0.175479,-0.17684,1.032943,2387.776,-249.4307)"
           width="744.09003"
           xlink:href="#h"
           id="use236" />
        <use
           height="1052.36"
           transform="matrix(0.880039,0.611241,-0.626969,0.857484,1323.951,-663.1332)"
           width="744.09003"
           xlink:href="#h"
           id="use238" />
        <use
           height="1052.36"
           transform="matrix(0.720278,0.609835,-0.708024,0.691606,1725.51,-343.7461)"
           width="744.09003"
           xlink:href="#h"
           id="use240" />
        <use
           height="1052.36"
           transform="matrix(-0.839499,-0.140959,-0.128995,0.89646,2187.226,36.14228)"
           width="744.09003"
           xlink:href="#h"
           id="use242" />
        <use
           height="1052.36"
           transform="matrix(0.742301,0.470879,-0.500929,0.793447,1313.941,-339.0369)"
           width="744.09003"
           xlink:href="#h"
           id="use244" />
        <use
           height="1052.36"
           transform="matrix(-1.023452,-0.128865,-0.128381,1.033841,2266.341,-233.7415)"
           width="744.09003"
           xlink:href="#h"
           id="use246" />
        <use
           height="1052.36"
           transform="matrix(1.02832,0.467983,-0.47623,1.009946,896.6814,-729.9796)"
           width="744.09003"
           xlink:href="#h"
           id="use248" />
        <use
           height="1052.36"
           transform="matrix(-0.870032,-0.03643122,-0.03642634,0.853264,2036.286,66.66707)"
           width="744.09003"
           xlink:href="#h"
           id="use250" />
        <use
           height="1052.36"
           transform="matrix(0.791858,0.388611,-0.446855,0.757136,1159.631,-141.3732)"
           width="744.09003"
           xlink:href="#h"
           id="use252" />
        <use
           height="1052.36"
           transform="matrix(-1.058907,0.05105063,0.05195064,1.05255,1963.583,-373.0458)"
           width="744.09003"
           xlink:href="#h"
           id="use254" />
        <use
           height="1052.36"
           transform="matrix(1.011791,0.362802,-0.337656,1.086531,649.4917,-700.9716)"
           width="744.09003"
           xlink:href="#h"
           id="use256" />
        <use
           height="1052.36"
           transform="matrix(-0.873065,0.01354367,0.01143627,0.926846,1945.742,-61.60909)"
           width="744.09003"
           xlink:href="#h"
           id="use258" />
        <use
           height="1052.36"
           transform="matrix(0.820777,0.327547,-0.366336,0.805681,982.1377,-111.3936)"
           width="744.09003"
           xlink:href="#h"
           id="use260" />
        <use
           height="1052.36"
           transform="matrix(-1.037813,0.123406,0.122709,1.040759,1808.458,-354.4088)"
           width="744.09003"
           xlink:href="#h"
           id="use262" />
        <use
           height="1052.36"
           transform="matrix(1.052907,0.182933,-0.175351,1.097822,319.0755,-485.403)"
           width="744.09003"
           xlink:href="#h"
           id="use264" />
        <use
           height="1052.36"
           transform="matrix(1.047843,0.130472,-0.129238,1.057852,181.2178,-283.9914)"
           width="744.09003"
           xlink:href="#h"
           id="use266" />
        <use
           height="1052.36"
           transform="matrix(-0.890144,0.162781,0.159546,0.870934,1693.077,-46.41922)"
           width="744.09003"
           xlink:href="#h"
           id="use268" />
        <use
           height="1052.36"
           transform="matrix(0.942223,0.196016,-0.250442,0.905608,659.6853,-102.9433)"
           width="744.09003"
           xlink:href="#h"
           id="use270" />
        <use
           height="1052.36"
           transform="matrix(-1.016537,0.210251,0.201957,1.042059,1647.379,-377.1752)"
           width="744.09003"
           xlink:href="#h"
           id="use272" />
        <use
           height="1052.36"
           transform="matrix(1.029275,0.07198404,-0.0696393,1.063337,148.8458,-258.281)"
           width="744.09003"
           xlink:href="#h"
           id="use274" />
        <use
           height="1052.36"
           transform="matrix(-0.865149,0.244757,0.252951,0.861733,1505.641,-51.74182)"
           width="744.09003"
           xlink:href="#h"
           id="use276" />
        <use
           height="1052.36"
           transform="matrix(0.839748,0.13523,-0.166841,0.915057,608.985,-5.916645)"
           width="744.09003"
           xlink:href="#h"
           id="use278" />
        <use
           height="1052.36"
           transform="matrix(-0.867774,0.211451,0.272755,0.834455,1476.512,77.49399)"
           width="744.09003"
           xlink:href="#h"
           id="use280" />
        <path
           id="h"
           d="m 900.43,1739.54 c 0,0 15.46,103.82 68.07,77.08 35.91,-41.93 -68.07,-77.08 -68.07,-77.08 z"
           fill="#ffc709"
           stroke="#000000"
           stroke-linejoin="round"
           stroke-width="6.29" />
      </g>
      <g
         id="g293">
        <path
           d="m 1100.38,1955.66 c 0,0 -58.75,0.73 -97.94,-11.7 -51.44,-14.06 -71.93,-61.6 -71.93,-61.6 0,0 -7.54,10.89 -7.07,26.37 0.47,14.08 10.53,46.57 35.78,80.97 26.19,42.38 44.02,92.35 65.14,125.16 16.89,29.53 52.55,56.25 52.55,56.25 0,0 113.48,-13.56 124.46,-15.91 14.61,-2.23 114.88,-25.34 137.38,-26.59 22.5,-1.25 73.59,2.03 73.59,2.03 0,0 -17.98,-33.12 -26.67,-39.53 -17.36,-14.38 -38.34,-20.24 -60.06,-41.25 -11.86,-13.03 -31.86,-36.09 -43.11,-48.59 -14.07,-13.44 -24.69,-26.67 -40,-35.29 -12.5,-8.15 -142.12,-10.32 -142.12,-10.32 z"
           stroke="#000000"
           stroke-width="3.12"
           id="path285" />
        <path
           d="m 1356.85,2074.5 c 0,0 -41.71,1.06 -61.79,3.63 -22.19,3.51 -69.89,9.28 -108.19,13.2 -34.4,3.8 -63.54,6.02 -102.37,6.43 l -70.52,-3.23 c 2.25,4.19 8.53,15.46 14.77,24.42 7.5,11.49 13.4,19.14 27.12,31.92 11.27,10.67 18.22,16.21 21.45,18.68 8.45,-0.94 61.8,-7.33 83.34,-10.31 35.43,-3.45 53.42,-8.19 94.22,-16.84 21.33,-4.35 70.77,-14.75 83.63,-15.46 14.51,-1.17 66.09,1.55 71.49,2.02 -3.4,-5.59 -7.44,-12.28 -13.09,-21.8 -8,-13.51 -14.19,-16.99 -25.44,-24.52 -4.46,-2.9 -14.25,-7.99 -14.62,-8.14 z"
           fill="#ffc709"
           id="path287" />
        <path
           d="m 972.03,2008.78 c 3.29,6.1 11.95,23.58 19.69,39.21 9.9,21.42 15.36,33.09 22.59,47.14 15.72,1.17 31.06,1.62 70.2,2.87 38.83,-0.41 67.95,-2.63 102.36,-6.42 38.29,-3.91 86.01,-9.64 108.21,-13.14 20.08,-2.56 62.42,-3.58 62.42,-3.58 0,0 -18.81,-11.37 -27.56,-18.87 -10.86,-10.08 -15.85,-17.27 -24.71,-26.6 -11.49,-0.94 -27.5,-1.01 -45,-2.26 -30.63,-1.72 -77.73,1.48 -103.98,1.48 -26.25,0 -70.63,-0.89 -108.05,-5.25 -50.8,-3.65 -63.03,-12 -76.17,-14.58 z"
           fill="#dd0000"
           id="path289" />
        <path
           d="m 929.73,1892.89 c 7.78,12.04 15.61,24.31 28.13,34.53 21.25,15.17 26.73,18.18 67.78,27.82 36.99,5.85 45.32,4.23 94.64,5.75 48.06,1.48 61.95,2.6 93.04,5.12 15.03,1.21 20.06,2.47 26.53,3.51"
           fill="none"
           stroke="#ffc709"
           stroke-linecap="round"
           stroke-width="5"
           id="path291" />
      </g>
    </g>
    <use
       height="1052.36"
       transform="matrix(-1,0,0,1,1627.635,0)"
       width="744.09003"
       xlink:href="#b"
       id="use296" />
    <g
       transform="translate(-896.5747,-1479.218)"
       id="g334">
      <path
         d="m 1509.38,2175.78 c -6.86,0.06 -14.16,1.01 -21.22,2.25 -47.09,8.16 -82.57,35.76 -199.88,63.5 -40.41,11.07 -81.72,14.69 -129.44,12.31 -3.52,-0.98 -6.35,-4.94 -6.4,-9.09 l -11.5,-6.56 c -5.03,7.77 -1.97,15.72 -0.16,20.56 1.49,3.98 3.86,8.49 7.38,11.28 84.81,60.39 86.99,73.38 135.78,119.41 26.9,26.51 35.01,34.9 124.56,20.69 17.67,28.65 21.49,43.59 72.44,28.78 l 8.56,21.47 c 7.92,14.79 18.78,15.02 46.34,9.15 71.38,-15.35 92.03,-32.76 173.54,-34.56 81.53,1.8 102.17,19.2 173.56,34.56 27.56,5.87 38.42,5.64 46.34,-9.15 l 8.56,-21.47 c 50.96,14.81 54.78,-0.13 72.44,-28.78 89.56,14.21 97.67,5.82 124.56,-20.69 48.79,-46.03 50.97,-59.02 135.79,-119.41 3.51,-2.79 5.85,-7.3 7.34,-11.28 1.81,-4.84 4.91,-12.79 -0.13,-20.56 l -11.5,6.56 c -0.05,4.15 -2.88,8.11 -6.4,9.09 -47.72,2.38 -89.03,-1.24 -129.44,-12.31 -117.31,-27.74 -152.79,-55.34 -199.87,-63.5 -18.84,-3.31 -39.5,-4.56 -48.29,7.66 -10.14,12.37 -18.57,35.85 -33.09,57.72 -27.23,-8.65 -48.85,-16.62 -71.12,-21.32 -29.76,-6.26 -51.21,-5.88 -68.75,-5.88 -17.26,0 -38.98,-0.38 -68.72,5.88 -22.28,4.7 -43.9,12.67 -71.13,21.32 -14.52,-21.87 -22.94,-45.35 -33.09,-57.72 -5.49,-7.64 -15.64,-10 -27.06,-9.91 z"
         stroke="#000000"
         stroke-width="3.13"
         id="path298" />
      <path
         d="m 1500.69,2234.12 c 7.34,13.07 10.33,23.42 13.17,34.8"
         fill="none"
         stroke="#ffc709"
         stroke-width="5"
         id="path300" />
      <path
         d="m 1216.31,2320.84 c 29.99,-3.25 38.72,-4.07 63.52,-8.19 23.26,-4.25 42.47,-8.51 63.38,-14.16 6.33,9.42 12.22,18.47 18.78,27.82 5.88,9.37 8.5,12.82 17.62,32.14 -18.82,1.71 -34.4,4.57 -54.2,7.1 -16.99,2.22 -36.47,4.88 -56.4,7.32 -7.64,-7.49 -13.47,-13.62 -21.79,-22.24 -10.15,-10.23 -17.89,-18.2 -30.91,-29.79 z"
         fill="#dd0000"
         id="path302" />
      <path
         d="m 1426.69,2314.44 c -30.18,6.36 -33.92,6.97 -56.58,14.31 11.51,20.05 17.96,38.98 25.98,55.64 23.24,-5.27 35.06,-7.72 57.57,-12.36 l -11.41,-24.5 z"
         fill="#dd0000"
         id="path304" />
      <path
         d="m 1268.92,2372.81 c 18.44,-2.19 36.55,-4.72 55.33,-7.17 21.95,-2.95 36.72,-5.42 56.88,-7.43 4.16,9.68 6.3,14.89 11.24,25.78 4.13,9.09 9.59,17.71 13.7,25.05 -13.35,1.86 -23.57,3.45 -38.25,4.98 -15.85,1.33 -21.58,1.84 -34.4,1.02 -12.61,-1.14 -21.84,-3.61 -33.06,-12.38 -7.26,-5.85 -18.81,-17.61 -31.44,-29.85 z"
         fill="#ffc709"
         id="path306" />
      <path
         d="m 1396.1,2384.39 c 20.06,-4.68 38.05,-8.47 59.22,-12.7 5.04,12.15 7.01,17.69 11.31,30.21 4.48,12.61 8.22,24.02 12.33,36.03 -10.06,2.71 -13.8,3.55 -25.04,5 -9.09,0.67 -17.58,-0.3 -24.14,-5.57 -5.26,-3.79 -12.75,-15.3 -19.8,-27.63 -5.32,-9.49 -9,-15.26 -13.88,-25.34 z"
         fill="#ffc709"
         id="path308" />
      <path
         d="m 1697.78,2292.5 c -17.64,0.95 -35.26,3.18 -41.03,4.56 -33.99,8.32 -54.28,15.41 -77.53,23.22 -41.16,13.76 -54.13,20.08 -77.28,27.16 -18.32,5.61 -31.32,8.64 -48,12.47 8.02,19.03 14.01,36.37 21.22,57.09 20.94,-3.6 37.72,-7.34 58.59,-13.62 23.4,-7.71 43.97,-14.27 69.19,-21.91 21.82,-6.61 37.31,-10.33 66.34,-15.25 11.59,-1.09 20.03,-1.77 28.81,-2.06 v 0.03 c 4.19,-0.14 7.77,-0.2 11.29,-0.22 3.52,0.02 7.11,0.08 11.31,0.22 v -0.03 c 8.78,0.3 17.23,0.97 28.81,2.06 29.03,4.92 44.52,8.64 66.34,15.25 25.22,7.64 45.79,14.2 69.19,21.91 20.87,6.28 37.66,10.02 58.6,13.62 7.21,-20.72 13.2,-38.06 21.21,-57.09 -16.67,-3.83 -29.68,-6.86 -48,-12.47 -23.15,-7.08 -36.12,-13.4 -77.28,-27.16 -23.25,-7.81 -43.54,-14.9 -77.53,-23.22 -5.77,-1.38 -23.39,-3.61 -41.03,-4.56 -10.8,-0.45 -12.47,-0.45 -23.22,0 z"
         fill="#dd0000"
         id="path310" />
      <path
         d="m 1699.53,2363.94 v 0.06 c -19.31,0.33 -32.89,1.89 -61.72,8.09 -47.74,11.11 -89.45,27.46 -116.9,34.97 -16.16,4.09 -30.12,6.98 -45.72,10.07 5.12,16.14 10.71,30.88 16.56,44.25 6.16,10.05 14.93,11.19 24.5,10.06 15.28,-2.35 27.85,-5.05 43.31,-9.03 30.72,-8.27 55.78,-16.82 85.13,-22.82 23.46,-4.26 42.07,-5.5 64.69,-6.15 22.61,0.65 41.21,1.89 64.68,6.15 29.35,6 54.44,14.55 85.16,22.82 15.47,3.98 28.03,6.68 43.31,9.03 9.57,1.13 18.35,-0.01 24.5,-10.06 5.85,-13.37 11.44,-28.11 16.56,-44.25 -15.6,-3.09 -29.59,-5.98 -45.75,-10.07 -27.45,-7.51 -69.13,-23.86 -116.87,-34.97 -28.82,-6.19 -42.42,-7.76 -61.72,-8.09 v -0.06 c -3.79,-0.02 -6.58,0.03 -9.87,0.03 -3.29,0 -6.07,-0.05 -9.85,-0.03 z"
         fill="#ffc709"
         id="path312" />
      <path
         d="m 1917.82,2234.9 c -5.78,12.04 -10.32,23.15 -13.42,34.02"
         fill="none"
         stroke="#ffc709"
         stroke-width="5"
         id="path314" />
      <path
         d="m 2202.47,2320.84 c -29.99,-3.25 -38.73,-4.07 -63.53,-8.19 -23.26,-4.25 -42.46,-8.51 -63.37,-14.16 -6.33,9.42 -12.23,18.47 -18.79,27.82 -5.88,9.37 -8.49,12.82 -17.62,32.14 18.83,1.71 34.4,4.57 54.21,7.1 16.99,2.22 36.46,4.88 56.39,7.32 7.65,-7.49 13.48,-13.62 21.79,-22.24 10.16,-10.23 17.9,-18.2 30.92,-29.79 z"
         fill="#dd0000"
         id="path316" />
      <path
         d="m 1992.09,2314.44 c 30.18,6.36 33.91,6.97 56.58,14.31 -11.52,20.05 -17.97,38.98 -25.98,55.64 -23.25,-5.27 -35.07,-7.72 -57.57,-12.36 l 11.4,-24.5 z"
         fill="#dd0000"
         id="path318" />
      <path
         d="m 2149.85,2372.81 c -18.44,-2.19 -36.55,-4.72 -55.32,-7.17 -21.95,-2.95 -36.73,-5.42 -56.88,-7.43 -4.17,9.68 -6.31,14.89 -11.25,25.78 -4.13,9.09 -9.58,17.71 -13.69,25.05 13.34,1.86 23.57,3.45 38.24,4.98 15.85,1.33 21.58,1.84 34.4,1.02 12.62,-1.14 21.85,-3.61 33.07,-12.38 7.26,-5.85 18.8,-17.61 31.43,-29.85 z"
         fill="#ffc709"
         id="path320" />
      <path
         d="m 2022.67,2384.39 c -20.05,-4.68 -38.05,-8.47 -59.22,-12.7 -5.04,12.15 -7.01,17.69 -11.31,30.21 -4.48,12.61 -8.22,24.02 -12.32,36.03 10.05,2.71 13.79,3.55 25.03,5 9.09,0.67 17.58,-0.3 24.15,-5.57 5.26,-3.79 12.75,-15.3 19.79,-27.63 5.32,-9.49 9.01,-15.26 13.88,-25.34 z"
         fill="#ffc709"
         id="path322" />
      <path
         d="m 1413.63,2286.61 c 4.8,13.35 15.25,30.37 22.05,44.73 2.9,5.54 12.28,25.16 19.09,43.1"
         fill="none"
         stroke="#ffc709"
         stroke-width="3.13"
         id="path324" />
      <path
         d="m 1327.29,2272.5 c 11.19,17.49 21.65,33.53 33.62,50.68 8.63,12.57 14.02,24.8 19.55,37.43"
         fill="none"
         stroke="#ffc709"
         stroke-width="3.13"
         id="path326" />
      <path
         d="m 2091.23,2274.32 c -11.19,17.48 -21.4,31.71 -33.37,48.86 -8.62,12.57 -14.02,24.8 -19.55,37.43"
         fill="none"
         stroke="#ffc709"
         stroke-width="3.13"
         id="path328" />
      <path
         d="m 2005.07,2285.33 c -4.79,13.35 -15.24,31.67 -22.05,46.03 -2.9,5.54 -12.28,25.16 -19.08,43.1"
         fill="none"
         stroke="#ffc709"
         stroke-width="3.13"
         id="path330" />
      <path
         d="m 1146.37,2241.24 c -1.84,2.8 -0.62,7.08 0.8,9.66 1.21,2.19 5.21,7.42 10.62,8.18 40.88,1.61 67.19,1.09 109.44,-7.02 44.63,-10.55 84.82,-20.5 129.96,-37.38 26.56,-9.58 58.2,-23.15 77.2,-28.33 23.89,-6.43 47.25,-10.47 55.56,-0.32 5.97,9.34 -13.87,20.31 -33.89,26.95 -23.27,7.06 -45.17,10.68 -68.57,13.76 -24.71,4.52 -50.93,9.45 -73.03,16.18 -13.83,4.47 -29.64,15.73 -27.94,25.57 2.86,12.86 21.18,9.19 37.51,3.78 l 108.34,-41.37 c 12.35,-4.51 25.61,-2.99 28.4,3.64 2.45,6.79 0.5,16.19 -16.16,19.54 l -51.87,8.76 c -18.41,3.34 -20.46,16.72 -19.07,21.54 1.55,5.02 9.03,12.04 31.19,6.75 50.88,-12.46 86.36,-30.15 119.23,-40.27 80.1,-27.2 95,-29.25 145.21,-29.45 48.44,0.1 63.79,1.77 145.38,29.45 32.87,10.12 68.35,27.81 119.23,40.27 22.16,5.29 29.39,-2.51 30.93,-7.53 1.4,-4.82 -1.18,-15.35 -18.8,-20.76 l -51.87,-8.76 c -16.66,-3.35 -18.61,-12.75 -16.17,-19.54 2.8,-6.63 16.05,-8.15 28.4,-3.64 l 108.34,41.37 c 16.34,5.41 35.43,9.6 38.3,-3.26 1.7,-9.84 -11.01,-20.84 -28.73,-26.09 -22.1,-6.73 -48.32,-11.66 -73.02,-16.18 -23.41,-3.08 -45.3,-6.7 -68.57,-13.76 -20.03,-6.64 -39.87,-17.35 -34.16,-26.95 9.62,-10.41 33.49,-6.37 55.82,0.32 19,5.18 50.65,18.75 77.21,28.33 45.14,16.88 85.32,26.83 129.96,37.38 42.24,8.11 68.55,8.63 109.44,7.02 5.41,-0.76 9.41,-5.99 10.62,-8.18 1.42,-2.58 2.64,-6.86 0.79,-9.66"
         fill="none"
         stroke="#ffc709"
         stroke-width="5"
         id="path332" />
    </g>
  </g>
</svg>
