<?xml version="1.0" encoding="UTF-8" standalone="no"?>
<svg
   version="1.1"
   width="80"
   height="40"
   id="svg10"
   sodipodi:docname="soviet-union.svg"
   inkscape:version="1.2.2 (732a01da63, 2022-12-09)"
   xmlns:inkscape="http://www.inkscape.org/namespaces/inkscape"
   xmlns:sodipodi="http://sodipodi.sourceforge.net/DTD/sodipodi-0.dtd"
   xmlns="http://www.w3.org/2000/svg"
   xmlns:svg="http://www.w3.org/2000/svg">
  <sodipodi:namedview
     id="namedview703"
     pagecolor="#ffffff"
     bordercolor="#666666"
     borderopacity="1.0"
     inkscape:showpageshadow="2"
     inkscape:pageopacity="0.0"
     inkscape:pagecheckerboard="0"
     inkscape:deskcolor="#d1d1d1"
     showgrid="false"
     inkscape:zoom="11.313709"
     inkscape:cx="67.617086"
     inkscape:cy="42.161242"
     inkscape:window-width="3840"
     inkscape:window-height="2080"
     inkscape:window-x="2869"
     inkscape:window-y="-11"
     inkscape:window-maximized="1"
     inkscape:current-layer="svg10" />
  <metadata
     id="metadata16" />
  <defs
     id="defs14" />
  <path
     fill="#bc0000"
     fill-opacity="1"
     d="M 0,0 H 80.009591 V 40.004796 H 0 Z"
     id="path2"
     style="fill:#cc0000;fill-opacity:1;stroke-width:0.0666746" />
  <path
     id="path11728"
     d="M 13.334966,2.5002998 12.77361,4.2279659 h -1.816563 l 1.469627,1.0677438 -0.561355,1.7276656 1.469647,-1.0677637 1.469646,1.0677637 -0.561355,-1.7276656 1.469627,-1.0677438 h -1.816562 z m 0,0.900107 0.359261,1.1056974 h 1.162619 l -0.94058,0.6833817 0.35926,1.1056974 -0.94056,-0.6833623 -0.940561,0.6833623 0.35926,-1.1056974 -0.940579,-0.6833817 h 1.162617 z"
     style="fill:#ffd700;fill-opacity:1;stroke:none;stroke-width:0.0100013px;stroke-linecap:butt;stroke-linejoin:miter;stroke-opacity:1" />
  <g
     style="fill:#ffd700;fill-opacity:1"
     id="g2900"
     transform="matrix(0.0659625,0,0,0.06579043,0.25534833,0.25109275)">
    <path
       id="rect4165-6"
       d="m 137.43744,171.69421 18.86296,18.9937 17.78834,-17.66589 c 27.05847,29.021 55.43807,56.99501 82.28704,86.12782 4.03444,4.06233 10.59815,4.085 14.66056,0.0506 4.06232,-4.03445 4.08499,-10.59815 0.0506,-14.66056 -28.81871,-27.1901 -57.72545,-54.60143 -86.55328,-81.89095 l 23.96499,-23.80003 -33.34026,-4.61605 z"
       style="fill:#ffd700;fill-opacity:1;stroke:none;stroke-width:0.489191;stroke-miterlimit:4;stroke-dasharray:none;stroke-dashoffset:0;stroke-opacity:1" />
    <path
       id="path4179-3"
       d="m 198.2887,110.1955 c 15.51743,8.7394 27.29872,21.28122 34.2484,34.3924 7.04394,13.28902 10.13959,27.16218 10.20325,38.25433 0.13054,22.74374 -18.43771,41.18184 -41.18183,41.18184 -12.13597,0 -23.04607,-5.24868 -30.58302,-13.60085 l -4.16863,3.51033 c -0.70999,-0.27231 -1.46387,-0.41221 -2.22429,-0.41276 -1.82948,1.9e-4 -3.56621,0.80531 -4.74859,2.20136 -2.97368,0.38896 -5.46251,2.44529 -6.40534,5.29224 -3.13486,6.28843 -8.63524,11.21997 -15.29104,13.4776 -0.0637,0.0216 -0.11992,0.05 -0.1758,0.0783 -3.07749,1.12758 -6.16259,3.1643 -8.78919,5.80245 -5.19155,5.23656 -7.72858,11.93658 -6.30024,16.63822 -0.14098,0.40857 -0.21361,0.83759 -0.21498,1.26979 1.5e-4,2.17082 1.75991,3.93058 3.93073,3.93073 0.54341,-0.002 1.08053,-0.11639 1.57745,-0.33632 4.69369,1.05881 11.06885,-1.54582 16.05444,-6.55917 2.82624,-2.85072 4.94356,-6.22349 5.98303,-9.53062 2.31696,-6.62278 7.29699,-12.01856 13.62281,-15.05312 0.15105,-0.0725 0.27303,-0.14714 0.38218,-0.22358 2.12082,-1.01408 3.67251,-2.92895 4.225,-5.2139 9.70222,11.44481 24.25255,18.75299 40.51876,19.13577 29.83352,0.70205 52.13299,-21.25802 53.16414,-52.83642 0.51894,-15.89259 -5.62993,-36.3847 -19.6412,-53.19089 -10.70835,-12.84441 -26.40987,-23.50795 -44.18699,-28.20777 z"
       style="fill:#ffd700;fill-opacity:1;stroke:none;stroke-width:0.500035;stroke-miterlimit:4;stroke-dasharray:none;stroke-dashoffset:0;stroke-opacity:1" />
  </g>
</svg>
